# xmcd
#
# Track frame offsets:
#	150
#	36326
#	57528
#	87364
#	119731
#	151185
#
# Disc length: 2758 seconds
#
# Revision: 0
# Processed by: cddbd v1.5.2PL0 Copyright (c) Steve Scherf et al.
# Submitted via: audiograbber 1.83.01
#
DISCID=4f0ac406
DTITLE=Grateful Dead - 94-07-01 Shoreline Amphitheatre, Mountain View CA
DYEAR=1900
DGENRE=
TTITLE0=Foolish Heart
TTITLE1=I Want To Tell You
TTITLE2=Men Smart, Women Smarter
TTITLE3=Ship Of Fools
TTITLE4=Samba In The Rain
TTITLE5=Playing In The Band
EXTD=
EXTT0=
EXTT1=
EXTT2=
EXTT3=
EXTT4=
EXTT5=
PLAYORDER=
